<svg width="598" height="125" viewBox="0 0 598 125" fill="none" xmlns="http://www.w3.org/2000/svg">
<path d="M63.608 66.56C69.848 68.576 74.648 71.744 78.008 76.064C81.464 80.384 83.192 85.664 83.192 91.904C83.192 101.984 80.024 109.52 73.688 114.512C67.448 119.504 56.936 122 42.152 122H0.392V12.848H42.152C55.496 12.848 64.952 15.296 70.52 20.192C76.088 25.088 78.872 32.384 78.872 42.08C78.872 47.936 77.624 52.928 75.128 57.056C72.728 61.088 68.888 64.256 63.608 66.56ZM20.408 59.216H42.152C53.096 59.216 58.568 54.08 58.568 43.808C58.568 38.528 57.32 34.736 54.824 32.432C52.328 30.128 48.104 28.976 42.152 28.976H20.408V59.216ZM62.888 90.464C62.888 85.184 61.16 81.344 57.704 78.944C54.248 76.544 49.064 75.344 42.152 75.344H20.408V105.872H42.152C49.736 105.872 55.064 104.672 58.136 102.272C61.304 99.776 62.888 95.84 62.888 90.464ZM139.721 124.448C130.793 124.448 123.209 122.576 116.969 118.832C110.729 115.088 106.025 110 102.857 103.568C99.785 97.04 98.249 89.744 98.249 81.68C98.249 73.712 99.785 66.512 102.857 60.08C106.025 53.648 110.729 48.56 116.969 44.816C123.209 41.072 130.793 39.2 139.721 39.2C148.553 39.2 156.041 41.072 162.185 44.816C168.425 48.56 173.081 53.648 176.153 60.08C179.321 66.512 180.905 73.712 180.905 81.68C180.905 89.744 179.321 97.04 176.153 103.568C173.081 110 168.425 115.088 162.185 118.832C156.041 122.576 148.553 124.448 139.721 124.448ZM139.721 107.6C146.537 107.6 151.769 105.296 155.417 100.688C159.065 95.984 160.889 89.648 160.889 81.68C160.889 73.712 159.065 67.424 155.417 62.816C151.769 58.208 146.537 55.904 139.721 55.904C132.809 55.904 127.481 58.208 123.737 62.816C120.089 67.424 118.265 73.712 118.265 81.68C118.265 89.648 120.089 95.984 123.737 100.688C127.481 105.296 132.809 107.6 139.721 107.6ZM235.627 124.448C226.699 124.448 219.115 122.576 212.875 118.832C206.635 115.088 201.931 110 198.763 103.568C195.691 97.04 194.155 89.744 194.155 81.68C194.155 73.712 195.691 66.512 198.763 60.08C201.931 53.648 206.635 48.56 212.875 44.816C219.115 41.072 226.699 39.2 235.627 39.2C244.459 39.2 251.947 41.072 258.091 44.816C264.331 48.56 268.987 53.648 272.059 60.08C275.227 66.512 276.811 73.712 276.811 81.68C276.811 89.744 275.227 97.04 272.059 103.568C268.987 110 264.331 115.088 258.091 118.832C251.947 122.576 244.459 124.448 235.627 124.448ZM235.627 107.6C242.443 107.6 247.675 105.296 251.323 100.688C254.971 95.984 256.795 89.648 256.795 81.68C256.795 73.712 254.971 67.424 251.323 62.816C247.675 58.208 242.443 55.904 235.627 55.904C228.715 55.904 223.387 58.208 219.643 62.816C215.995 67.424 214.171 73.712 214.171 81.68C214.171 89.648 215.995 95.984 219.643 100.688C223.387 105.296 228.715 107.6 235.627 107.6ZM321.886 90.032L314.254 97.952V122H294.958V0.175998H314.254V73.904L343.342 43.376H366.67L334.702 76.784L370.414 122H347.086L321.886 90.032ZM430.478 124.448C415.598 124.448 404.462 120.704 397.07 113.216C389.678 105.728 385.982 95.168 385.982 81.536V12.848H405.854V81.536C405.854 98.72 414.062 107.312 430.478 107.312C446.894 107.312 455.102 98.72 455.102 81.536V12.848H474.974V81.536C474.974 95.264 471.278 105.872 463.886 113.36C456.59 120.752 445.454 124.448 430.478 124.448ZM527.212 124.448C520.972 124.448 515.404 123.92 510.508 122.864C505.612 121.808 500.524 120.032 495.244 117.536V99.824C500.332 102.704 505.468 104.816 510.652 106.16C515.932 107.408 521.452 108.032 527.212 108.032C535.372 108.032 539.452 105.104 539.452 99.248C539.452 96.752 538.732 94.928 537.292 93.776C535.948 92.528 533.788 91.52 530.812 90.752L519.004 88.16C511.612 86.528 505.996 83.888 502.156 80.24C498.412 76.496 496.54 71.168 496.54 64.256C496.54 47.552 506.956 39.2 527.788 39.2C536.908 39.2 546.076 40.928 555.292 44.384V61.376C551.74 59.648 547.66 58.256 543.052 57.2C538.444 56.144 533.644 55.616 528.652 55.616C520.3 55.616 516.124 58.112 516.124 63.104C516.124 65.408 516.796 67.088 518.14 68.144C519.58 69.2 521.692 70.064 524.476 70.736L536.14 73.328C543.916 75.152 549.676 77.888 553.42 81.536C557.164 85.184 559.036 90.8 559.036 98.384C559.036 106.928 556.156 113.408 550.396 117.824C544.636 122.24 536.908 124.448 527.212 124.448ZM575.316 12.848H597.205L594.469 88.88H578.053L575.316 12.848ZM575.893 98.384H596.629V122H575.893V98.384Z" fill="black"/>
</svg>
