<svg width="148" height="31" viewBox="0 0 148 31" fill="none" xmlns="http://www.w3.org/2000/svg">
<path d="M1.72 28.2C1.72 29.16 2 29.6 2.36 29.88C2.68 30.16 3.2 30.16 3.8 30.16C6.72 30.2 9.8 30.12 12.56 29.68C15.32 29.24 17.8 28.48 19.56 27.08C21.32 25.76 22.32 23.72 22.28 20.96C22.16 17.88 20.68 14.88 18.12 13.64C20 12.24 20.52 10.12 20.36 8.04C20.16 4.96 18.6 3 16.36 1.84C14.12 0.68 11.2 0.359999 8.32 0.399999C7.32 0.439998 6.44 0.479998 5.52 0.599998C4.56 0.719999 3.56 0.919999 2.4 1.12C1.24 1.4 0.92 1.68 0.96 2.92L1.72 28.2ZM7.96 18.2C9.12 18.08 10.96 17.92 12.56 18.24C14.16 18.56 15.48 19.32 15.6 20.96C15.64 22.24 14.88 23.12 13.56 23.64C12.16 24.16 10.28 24.36 8.16 24.36L7.96 18.2ZM7.52 6C8.92 5.84 10.44 5.84 11.6 6.2C12.76 6.64 13.6 7.48 13.6 8.92C13.6 10.72 12.84 11.68 11.72 12.16C10.6 12.68 9.12 12.72 7.72 12.72L7.52 6ZM25.2847 19.4C25.2847 22.6 26.2847 25.4 28.0447 27.36C29.8047 29.32 32.3647 30.52 35.4447 30.52C38.5247 30.52 41.0847 29.32 42.8447 27.36C44.6047 25.4 45.6047 22.6 45.6047 19.4C45.6047 16.2 44.6047 13.4 42.8447 11.44C41.0847 9.48 38.5247 8.28 35.4447 8.28C32.3647 8.28 29.8047 9.48 28.0447 11.44C26.2847 13.4 25.2847 16.2 25.2847 19.4ZM31.5247 19.4C31.5247 16.24 33.0047 14.28 35.4447 14.28C37.8847 14.28 39.4047 16.24 39.4047 19.4C39.4047 22.56 37.8847 24.52 35.4447 24.52C33.0047 24.52 31.5247 22.56 31.5247 19.4ZM48.4878 19.4C48.4878 22.6 49.4878 25.4 51.2478 27.36C53.0078 29.32 55.5678 30.52 58.6478 30.52C61.7278 30.52 64.2878 29.32 66.0478 27.36C67.8078 25.4 68.8078 22.6 68.8078 19.4C68.8078 16.2 67.8078 13.4 66.0478 11.44C64.2878 9.48 61.7278 8.28 58.6478 8.28C55.5678 8.28 53.0078 9.48 51.2478 11.44C49.4878 13.4 48.4878 16.2 48.4878 19.4ZM54.7278 19.4C54.7278 16.24 56.2078 14.28 58.6478 14.28C61.0878 14.28 62.6078 16.24 62.6078 19.4C62.6078 22.56 61.0878 24.52 58.6478 24.52C56.2078 24.52 54.7278 22.56 54.7278 19.4ZM77.1803 30.2C78.3003 30.2 78.7003 29.8 78.7003 28.4V22.08L84.4203 29.76C85.0603 30.6 85.5803 30.84 86.6603 30.32L89.7803 28.8C90.7003 28.36 90.7803 27.84 90.2603 27.08L84.1403 19L90.5003 12.64C91.1803 11.96 91.1803 11.4 90.5403 10.96L87.2603 8.52C86.7803 8.16 86.3003 8.24 85.8603 8.68L78.7003 15.72V2.6C78.7003 1.2 78.3403 0.799998 77.1803 0.799998H73.6203C72.5003 0.799998 72.1003 1.2 72.1003 2.6V28.4C72.1003 29.8 72.5003 30.2 73.6203 30.2H77.1803ZM115.262 2.6C115.142 1.2 114.902 0.799998 113.742 0.799998H109.982C108.862 0.799998 108.422 1.2 108.462 2.6L109.102 18.96C109.142 21.04 108.742 22.4 108.062 23.24C107.302 24.08 106.342 24.48 105.262 24.52C104.262 24.56 103.142 24.36 102.222 23.68C101.302 23 100.662 21.76 100.662 19.8L100.462 2.6C100.462 1.2 100.102 0.799998 98.9419 0.799998H95.1819C94.0619 0.799998 93.6619 1.2 93.6619 2.6L93.9019 19.48C93.9419 23.04 94.8219 25.8 96.7019 27.68C98.5019 29.6 101.342 30.6 105.222 30.6C109.382 30.6 112.142 29.32 113.862 27.08C115.582 24.84 116.182 21.68 116.022 17.96L115.262 2.6ZM121.198 23.68C120.438 23.36 120.038 23.6 119.918 24.2L119.318 28.16C119.198 28.68 119.398 28.76 120.198 29.12C121.198 29.56 122.078 29.92 123.238 30.2C124.358 30.48 125.718 30.6 127.758 30.6C132.878 30.6 136.078 28.4 136.078 24.4C136.078 21.2 134.078 19.36 130.918 18.08C129.478 17.44 128.238 17.08 127.398 16.64C126.558 16.28 126.078 15.84 126.078 15.2C126.078 14.12 126.998 13.76 128.758 13.76C130.398 13.76 132.198 14.16 134.238 15.24C134.998 15.6 135.278 15.4 135.318 14.8L135.598 11.08C135.638 10.4 135.638 10.12 134.958 9.8C133.678 9.2 132.678 8.84 131.598 8.56C130.518 8.36 129.478 8.28 128.078 8.28C124.678 8.28 122.358 9.08 120.918 10.32C119.438 11.56 118.838 13.2 118.838 14.84C118.838 16.88 119.798 18.36 121.198 19.48C122.518 20.6 124.318 21.32 125.878 21.84C127.158 22.28 127.838 22.6 128.278 22.88C128.718 23.2 128.798 23.48 128.798 23.8C128.798 24.56 128.398 25.08 127.158 25.08C124.478 25.08 122.758 24.36 121.198 23.68ZM140.598 27.48C140.598 29.28 141.998 30.56 143.878 30.56C145.638 30.56 147.118 29.28 147.118 27.48C147.118 25.6 145.638 24.36 143.878 24.36C141.998 24.36 140.598 25.6 140.598 27.48ZM140.598 20.24C140.598 21.64 140.998 22.04 142.118 22.04H145.758C146.918 22.04 147.278 21.64 147.278 20.24V2.6C147.278 1.2 146.918 0.799998 145.758 0.799998H142.118C140.998 0.799998 140.598 1.2 140.598 2.6V20.24Z" fill="#414141"/>
</svg>
